<?xml version="1.0" encoding="iso-8859-1"?>
<!-- Generator: Adobe Illustrator 24.0.3, SVG Export Plug-In . SVG Version: 6.00 Build 0)  -->
<svg version="1.1" id="Layer_1" xmlns="http://www.w3.org/2000/svg" xmlns:xlink="http://www.w3.org/1999/xlink" x="0px" y="0px"
	 viewBox="0 0 24 24" style="enable-background:new 0 0 24 24;" xml:space="preserve">
<g>
	<g>
		<path d="M13.823,13.313c0-0.979,2.119-1.267,2.119-3.559c0-1.002-0.069-1.716-0.518-2.223c-0.035-0.035-0.058-0.058-0.092-0.081
			c-0.161-0.15-0.346-0.276-0.576-0.392c0-0.334,1.878-0.115,1.878-0.76c-0.323,0-4.112,0-4.112,0s-3.018,0.08-3.905,2.303
			c-0.092,0.196-0.15,0.403-0.196,0.622C8.375,9.465,8.34,9.73,8.34,10.007c0,3.571,3.651,3.168,3.651,3.168s0,0.541,0,0.91
			c0,0.369,0.484,0.242,0.541,0.991c-0.242,0-5.057-0.138-5.057,3.11c0,3.26,4.25,3.099,4.25,3.099s4.907,0.219,4.907-3.813
			C16.634,15.063,13.823,14.28,13.823,13.313z M10.264,10.202C10.091,9.5,10.114,8.82,10.31,8.279
			c0.058-0.219,0.15-0.415,0.265-0.576c0.207-0.311,0.484-0.518,0.829-0.61c0.38-0.092,0.772-0.035,1.14,0.173
			c0.207,0.104,0.403,0.253,0.576,0.438c0.357,0.357,0.657,0.875,0.818,1.486c0.38,1.451-0.115,2.845-1.14,3.11
			C11.784,12.587,10.655,11.642,10.264,10.202z M12.383,20.247c-1.693,0.115-3.156-0.806-3.237-2.062
			c-0.081-1.267,1.232-2.373,2.937-2.5c1.693-0.127,3.133,0.806,3.237,2.073C15.39,19.014,14.088,20.132,12.383,20.247z"/>
		<path d="M20,4l-4.571,3.429h-2.286c-0.194-0.206-0.389-0.229-0.594-0.183c-0.366-0.206-0.754-0.263-1.131-0.171
			C11.074,7.166,10.8,7.371,10.594,7.68c-0.114,0.16-0.206,0.354-0.263,0.571C9.977,8.423,9,9,9,9H3l8-5H20z"/>
	</g>
</g>
<line style="fill:none;stroke:#000000;stroke-width:2;stroke-linecap:round;stroke-miterlimit:10;" x1="18" y1="9" x2="18" y2="10"/>
<line style="fill:none;stroke:#000000;stroke-linecap:round;stroke-miterlimit:10;" x1="18" y1="5" x2="18" y2="8"/>
</svg>